<svg width="20" height="19" viewBox="0 0 20 19" fill="none" xmlns="http://www.w3.org/2000/svg">
<path d="M18.2891 4.4642H13.6016C13.168 4.4642 12.8164 4.11264 12.8164 3.67905C12.8164 3.24545 13.168 2.89389 13.6016 2.89389H18.2891C18.7227 2.89389 19.0742 3.24545 19.0742 3.67905C19.0742 4.11264 18.7227 4.4642 18.2891 4.4642Z" fill="white"/>
<path d="M15.9463 6.81933C15.5127 6.81933 15.1611 6.46777 15.1611 6.03418V1.34668C15.1611 0.913086 15.5127 0.561523 15.9463 0.561523C16.3799 0.561523 16.7314 0.913086 16.7314 1.34668V6.03418C16.7314 6.46777 16.3799 6.81933 15.9463 6.81933Z" fill="white"/>
<path d="M18.1148 18.8548C17.8687 18.8548 17.6343 18.7259 17.5054 18.5032C16.7086 17.1204 15.5484 15.9603 14.1656 15.1634C9.79449 12.6322 4.19293 14.1322 1.66168 18.5032C1.46246 18.8431 1.04059 18.9603 0.700742 18.7611C0.360899 18.5618 0.243711 18.14 0.44293 17.8001C3.34918 12.7611 9.81793 11.0384 14.857 13.9447C16.4625 14.8704 17.7867 16.2064 18.7125 17.8001C18.9117 18.14 18.7945 18.5618 18.4546 18.7611C18.3492 18.8197 18.232 18.8548 18.1148 18.8548Z" fill="white"/>
<path d="M9.59491 13.9322C8.85663 13.9322 8.10663 13.8033 7.39178 13.5338C4.12225 12.3268 2.44647 8.67052 3.6535 5.40098C4.76678 2.4127 7.93085 0.713482 11.0363 1.44004C11.4113 1.53379 11.6457 1.90879 11.5637 2.28379C11.4699 2.65879 11.0949 2.89317 10.7199 2.81114C8.30585 2.23692 5.83319 3.56114 4.97772 5.89317C4.04022 8.43614 5.341 11.2721 7.88397 12.2096C9.11444 12.6666 10.4504 12.6197 11.6457 12.069C12.841 11.5182 13.7433 10.5455 14.2004 9.30333C14.341 8.94005 14.7394 8.75255 15.1027 8.89317C15.466 9.0338 15.6535 9.43223 15.5129 9.79551C14.9269 11.3775 13.7551 12.6432 12.2199 13.3463C11.3879 13.733 10.4973 13.9322 9.59491 13.9322Z" fill="white"/>
</svg>
